#!OML:ASF H:\BreakDance\Project 1\Capture day 1\Session 1\Male.ASF
:FULLY-SPECIFIED
:DEGREES
930
root 5.655 15.6864 7.18352 -177.231 -58.6041 535.338
lowerback -3.78097 0.445148 0.866375
upperback 4.857 0.512025 -1.04199
thorax 7.20926 0.292469 -1.5298
lowerneck 0.41164 3.2416 2.63974
upperneck 10.3264 4.01606 0.245588
head 3.29538 1.99937 -0.269327
rclavicle -3.65018e-014 -5.1684e-015
rhumerus 24.575 42.9814 -62.8193
rradius 35.9985
rwrist 11.3931
rhand -41.969 -36.4038
rfingers 7.12502
rthumb -14.8653 -65.8505
lclavicle -3.65018e-014 -5.1684e-015
lhumerus 13.8725 -34.5223 60.8794
lradius 39.0893
lwrist -11.7055
lhand -42.9857 -393.036
lfingers 7.12502
lthumb -15.8446 -3.66473
rfemur -21.484 -1.77689 0.536503
rtibia 42.6201
rfoot -13.8428 -11.8978
rtoes -29.3136
lfemur -7.70661 2.10124 -6.70887
ltibia 32.9966
lfoot -26.0031 21.1712
ltoes -40.4793
931
root 5.65952 15.6869 7.18435 -177.233 -58.6324 535.322
lowerback -3.74491 0.420166 0.823332
upperback 4.83218 0.481656 -1.03067
thorax 7.16003 0.27473 -1.49679
lowerneck 0.403327 3.26067 2.73267
upperneck 10.3511 4.04514 0.165208
head 3.31066 2.01445 -0.310073
rclavicle 1.50704e-014 1.2424e-014
rhumerus 24.5893 43.0487 -62.8117
rradius 35.9835
rwrist 11.4101
rhand -41.924 -36.4286
rfingers 7.12502
rthumb -14.822 -65.8785
lclavicle 1.50704e-014 1.2424e-014
lhumerus 13.8182 -34.5664 60.8579
lradius 39.1063
lwrist -11.6368
lhand -42.9777 -393.239
lfingers 7.12502
lthumb -15.8369 -3.8671
rfemur -21.4689 -1.78151 0.536824
rtibia 42.615
rfoot -13.8118 -11.9262
rtoes -29.3991
lfemur -7.70282 2.08559 -6.70922
ltibia 32.975
lfoot -25.9616 21.1814
ltoes -40.5423
932
root 5.66407 15.6877 7.18514 -177.266 -58.6556 535.344
lowerback -3.71302 0.395352 0.79177
upperback 4.81626 0.449956 -1.01194
thorax 7.12282 0.256758 -1.4626
lowerneck 0.359475 3.28192 2.83197
upperneck 10.3808 4.07769 0.0730339
head 3.33501 2.03143 -0.355025
rclavicle -1.06809e-013 1.50082e-014
rhumerus 24.6368 43.1175 -62.7818
rradius 35.965
rwrist 11.4292
rhand -41.8787 -36.4483
rfingers 7.12502
rthumb -14.7783 -65.9014
lclavicle -1.06809e-013 1.50082e-014
lhumerus 13.7757 -34.61 60.8239
lradius 39.1295
lwrist -11.5515
lhand -43.0005 -393.363
lfingers 7.12502
lthumb -15.8589 -3.99202
rfemur -21.4529 -1.78019 0.559533
rtibia 42.6033
rfoot -13.7735 -11.9571
rtoes -29.4701
lfemur -7.70374 2.07969 -6.68881
ltibia 32.9643
lfoot -25.9199 21.1929
ltoes -40.6148
933
root 5.66878 15.6887 7.18596 -177.336 -58.6777 535.408
lowerback -3.6794 0.375629 0.783704
upperback 4.80257 0.423147 -0.989417
thorax 7.08745 0.242348 -1.43713
lowerneck 0.314883 3.29882 2.8969
upperneck 10.3971 4.10299 0.0136166
head 3.35296 2.04475 -0.383802
rclavicle -4.77829e-014 1.32192e-014
rhumerus 24.6816 43.1778 -62.7499
rradius 35.9478
rwrist 11.438
rhand -41.8399 -36.447
rfingers 7.12502
rthumb -14.7409 -65.9029
lclavicle -4.77829e-014 1.32192e-014
lhumerus 13.7357 -34.6602 60.7925
lradius 39.1604
lwrist -11.4706
lhand -43.0533 -393.392
lfingers 7.12502
lthumb -15.9097 -4.02508
rfemur -21.4356 -1.75546 0.607241
rtibia 42.5866
rfoot -13.7402 -12.002
rtoes -29.4809
lfemur -7.70764 2.05907 -6.6473
ltibia 32.9604
lfoot -25.9032 21.1974
ltoes -40.6639
934
root 5.67332 15.6897 7.18679 -177.438 -58.695 535.506
lowerback -3.63928 0.366818 0.8037
upperback 4.78751 0.409005 -0.965436
thorax 7.04755 0.235614 -1.42463
lowerneck 0.277791 3.30094 2.9075
upperneck 10.4033 4.10608 0.00296461
head 3.36272 2.04666 -0.388311
rclavicle -1.77912e-014 -3.97569e-016
rhumerus 24.6887 43.2152 -62.7357
rradius 35.9374
rwrist 11.4322
rhand -41.8177 -36.4071
rfingers 7.12502
rthumb -14.7195 -65.8645
lclavicle -1.77912e-014 -3.97569e-016
lhumerus 13.6982 -34.7186 60.7765
lradius 39.1923
lwrist -11.4071
lhand -43.124 -393.338
lfingers 7.12502
lthumb -15.9778 -3.97676
rfemur -21.4162 -1.70507 0.674791
rtibia 42.5674
rfoot -13.7157 -12.0589
rtoes -29.4553
lfemur -7.7041 2.01023 -6.59066
ltibia 32.9579
lfoot -25.9252 21.1973
ltoes -40.6396
935
root 5.67806 15.6906 7.18763 -177.556 -58.7207 535.621
lowerback -3.5893 0.365267 0.842367
upperback 4.76896 0.403562 -0.943153
thorax 6.99871 0.234152 -1.42356
lowerneck 0.248264 3.28307 2.86919
upperneck 10.4059 4.07988 0.0370937
head 3.3667 2.03364 -0.370931
rclavicle -4.94974e-014 1.63997e-014
rhumerus 24.6456 43.2217 -62.7493
rradius 35.9374
rwrist 11.4123
rhand -41.8073 -36.3344
rfingers 7.12502
rthumb -14.7095 -65.7926
lclavicle -4.94974e-014 1.63997e-014
lhumerus 13.6749 -34.7859 60.7675
lradius 39.2187
lwrist -11.3554
lhand -43.1859 -393.249
lfingers 7.12502
lthumb -16.0373 -3.89249
rfemur -21.3928 -1.63871 0.752293
rtibia 42.5495
rfoot -13.7071 -12.131
rtoes -29.4108
lfemur -7.70032 1.93599 -6.52496
ltibia 32.9525
lfoot -25.9616 21.191
ltoes -40.5541
936
root 5.68224 15.691 7.18839 -177.689 -58.7286 535.746
lowerback -3.54742 0.380497 0.90743
upperback 4.75733 0.419161 -0.929737
thorax 6.96305 0.244701 -1.44458
lowerneck 0.201743 3.24674 2.817
upperneck 10.4251 4.02647 0.0920083
head 3.37832 2.00731 -0.344841
rclavicle -4.11857e-014 5.76476e-015
rhumerus 24.5635 43.1856 -62.7922
rradius 35.9455
rwrist 11.3907
rhand -41.7914 -36.2531
rfingers 7.12502
rthumb -14.6942 -65.7123
lclavicle -4.11857e-014 5.76476e-015
lhumerus 13.6888 -34.8643 60.7449
lradius 39.2341
lwrist -11.312
lhand -43.2271 -393.149
lfingers 7.12502
lthumb -16.0771 -3.79593
rfemur -21.3727 -1.55013 0.83476
rtibia 42.5362
rfoot -13.7106 -12.2057
rtoes -29.3799
lfemur -7.68072 1.8459 -6.45697
ltibia 32.9419
lfoot -26.0089 21.2033
ltoes -40.4332
937
root 5.68631 15.691 7.18908 -177.818 -58.725 535.868
lowerback -3.52016 0.404053 0.980014
upperback 4.75632 0.445453 -0.922462
thorax 6.94779 0.261119 -1.47527
lowerneck 0.110813 3.20096 2.78418
upperneck 10.4777 3.95925 0.133143
head 3.4107 1.97451 -0.325994
rclavicle -1.28875e-013 8.34896e-015
rhumerus 24.4792 43.118 -62.844
rradius 35.955
rwrist 11.379
rhand -41.7707 -36.1723
rfingers 7.12502
rthumb -14.6742 -65.633
lclavicle -1.28875e-013 8.34896e-015
lhumerus 13.7499 -34.9507 60.6941
lradius 39.2362
lwrist -11.2608
lhand -43.2572 -393.04
lfingers 7.12502
lthumb -16.106 -3.6892
rfemur -21.3616 -1.45331 0.915037
rtibia 42.5295
rfoot -13.7221 -12.2786
rtoes -29.3438
lfemur -7.65759 1.75506 -6.3912
ltibia 32.9269
lfoot -26.0448 21.2364
ltoes -40.3052
938
root 5.68967 15.6907 7.18958 -177.932 -58.6964 535.971
lowerback -3.51952 0.434148 1.04758
upperback 4.76936 0.48055 -0.918394
thorax 6.96331 0.281833 -1.50564
lowerneck -0.0213487 3.15354 2.77043
upperneck 10.5616 3.8895 0.152793
head 3.46295 1.94058 -0.316615
rclavicle -3.8763e-014 -7.95139e-015
rhumerus 24.4252 43.0426 -62.8778
rradius 35.9602
rwrist 11.3796
rhand -41.7476 -36.089
rfingers 7.12502
rthumb -14.652 -65.5514
lclavicle -3.8763e-014 -7.95139e-015
lhumerus 13.8364 -35.0315 60.6287
lradius 39.2282
lwrist -11.2139
lhand -43.2812 -392.935
lfingers 7.12502
lthumb -16.1292 -3.58594
rfemur -21.3623 -1.35577 0.982704
rtibia 42.5289
rfoot -13.7332 -12.3281
rtoes -29.3027
lfemur -7.62447 1.68221 -6.33826
ltibia 32.9093
lfoot -26.0717 21.2923
ltoes -40.2015
939
root 5.69309 15.6905 7.19001 -178.016 -58.6679 536.05
lowerback -3.53669 0.459644 1.09919
upperback 4.78614 0.510393 -0.914037
thorax 6.99286 0.299237 -1.5272
lowerneck -0.168516 3.11283 2.76289
upperneck 10.6649 3.8286 0.161058
head 3.52564 1.91085 -0.31142
rclavicle 3.30107e-014 -5.96354e-016
rhumerus 24.4053 42.9775 -62.8844
rradius 35.9596
rwrist 11.3902
rhand -41.723 -36.0037
rfingers 7.12502
rthumb -14.6283 -65.4677
lclavicle 3.30107e-014 -5.96354e-016
lhumerus 13.911 -35.0925 60.5798
lradius 39.2133
lwrist -11.2176
lhand -43.3017 -392.828
lfingers 7.12502
lthumb -16.1489 -3.48107
rfemur -21.3729 -1.27663 1.03616
rtibia 42.5329
rfoot -13.7406 -12.358
rtoes -29.2294
lfemur -7.60008 1.63522 -6.29631
ltibia 32.8917
lfoot -26.0882 21.3396
ltoes -40.1188
940
root 5.69626 15.6905 7.19039 -178.066 -58.645 536.098
lowerback -3.5701 0.475507 1.13079
upperback 4.80179 0.528676 -0.909391
thorax 7.03 0.310011 -1.53824
lowerneck -0.295228 3.08994 2.74952
upperneck 10.7648 3.79226 0.168162
head 3.58371 1.89285 -0.305207
rclavicle 1.06847e-015 1.49089e-014
rhumerus 24.4211 42.945 -62.8592
rradius 35.9544
rwrist 11.3943
rhand -41.7094 -35.916
rfingers 7.12502
rthumb -14.6152 -65.381
lclavicle 1.06847e-015 1.49089e-014
lhumerus 13.9409 -35.119 60.5669
lradius 39.199
lwrist -11.2944
lhand -43.3151 -392.727
lfingers 7.12502
lthumb -16.1618 -3.38097
rfemur -21.3879 -1.23435 1.06973
rtibia 42.5386
rfoot -13.7499 -12.3528
rtoes -29.0824
lfemur -7.5843 1.60662 -6.27052
ltibia 32.8762
lfoot -26.0998 21.3718
ltoes -40.0365
941
root 5.69933 15.6906 7.1907 -178.098 -58.6275 536.132
lowerback -3.61363 0.483153 1.15155
upperback 4.81387 0.536793 -0.904699
thorax 7.0687 0.315288 -1.54406
lowerneck -0.358869 3.09054 2.71542
upperneck 10.8214 3.7888 0.194553
head 3.61414 1.89084 -0.289353
rclavicle -9.09067e-014 2.29596e-014
rhumerus 24.4657 42.9444 -62.8129
rradius 35.9421
rwrist 11.3884
rhand -41.7154 -35.8334
rfingers 7.12502
rthumb -14.621 -65.298
lclavicle -9.09067e-014 2.29596e-014
lhumerus 13.9228 -35.1025 60.591
lradius 39.1868
lwrist -11.4464
lhand -43.314 -392.659
lfingers 7.12502
lthumb -16.1607 -3.31315
rfemur -21.4059 -1.21152 1.09559
rtibia 42.5436
rfoot -13.7628 -12.3271
rtoes -28.8851
lfemur -7.57817 1.58143 -6.25199
ltibia 32.8636
lfoot -26.112 21.3947
ltoes -39.9854
942
root 5.70262 15.691 7.19093 -178.133 -58.6171 536.176
lowerback -3.65922 0.484898 1.17215
upperback 4.82102 0.537091 -0.898564
thorax 7.10304 0.3167 -1.549
lowerneck -0.349693 3.11032 2.65845
upperneck 10.8145 3.81288 0.24701
head 3.60748 1.90242 -0.261747
rclavicle -1.51101e-013 3.38928e-014
rhumerus 24.5244 42.9621 -62.7614
rradius 35.9222
rwrist 11.3802
rhand -41.7401 -35.744
rfingers 7.12502
rthumb -14.6448 -65.2069
lclavicle -1.51101e-013 3.38928e-014
lhumerus 13.8732 -35.0359 60.6472
lradius 39.1705
lwrist -11.6558
lhand -43.2876 -392.64
lfingers 7.12502
lthumb -16.1353 -3.29197
rfemur -21.4273 -1.19158 1.12913
rtibia 42.5467
rfoot -13.7787 -12.301
rtoes -28.6714
lfemur -7.58376 1.54622 -6.22773
ltibia 32.8532
lfoot -26.1296 21.4163
ltoes -39.97
943
root 5.70619 15.6914 7.19108 -178.169 -58.6187 536.227
lowerback -3.70461 0.478753 1.18717
upperback 4.82884 0.527016 -0.890329
thorax 7.1375 0.312641 -1.54964
lowerneck -0.313132 3.13714 2.60332
upperneck 10.7645 3.84894 0.295517
head 3.58074 1.92004 -0.236183
rclavicle 8.48189e-014 -2.41523e-014
rhumerus 24.6043 42.9949 -62.698
rradius 35.8979
rwrist 11.3628
rhand -41.7726 -35.6406
rfingers 7.12502
rthumb -14.6761 -65.1011
lclavicle 8.48189e-014 -2.41523e-014
lhumerus 13.8084 -34.9078 60.7267
lradius 39.151
lwrist -11.8788
lhand -43.2248 -392.684
lfingers 7.12502
lthumb -16.0748 -3.33098
rfemur -21.4467 -1.17762 1.16807
rtibia 42.5477
rfoot -13.793 -12.2839
rtoes -28.5057
lfemur -7.59827 1.4992 -6.19884
ltibia 32.844
lfoot -26.1443 21.4388
ltoes -39.9817
944
root 5.71015 15.6919 7.19117 -178.217 -58.6282 536.289
lowerback -3.75046 0.465849 1.19721
upperback 4.84696 0.507674 -0.88035
thorax 7.18282 0.303671 -1.54662
lowerneck -0.297556 3.16486 2.57879
upperneck 10.6966 3.88876 0.313949
head 3.55337 1.94006 -0.225432
rclavicle -5.37961e-015 7.55382e-015
rhumerus 24.7164 43.0299 -62.6225
rradius 35.8701
rwrist 11.3423
rhand -41.7919 -35.5548
rfingers 7.12502
rthumb -14.6946 -65.014
lclavicle -5.37961e-015 7.55382e-015
lhumerus 13.7577 -34.7278 60.8004
lradius 39.1293
lwrist -12.0677
lhand -43.1329 -392.785
lfingers 7.12502
lthumb -15.9863 -3.42504
rfemur -21.4611 -1.15736 1.2157
rtibia 42.5472
rfoot -13.8012 -12.2933
rtoes -28.4424
lfemur -7.6151 1.44513 -6.16215
ltibia 32.8358
lfoot -26.1508 21.4637
ltoes -40.0277
